<svg width="128" height="128" viewBox="0 0 128 128" fill="none" xmlns="http://www.w3.org/2000/svg">
<path d="M21 31.5881C21.2463 29.7913 21.2203 27.9031 21.7915 26.2153C23.3293 21.6718 26.0663 17.9746 30.2109 15.352C33.5428 13.2437 37.1962 12.4925 41.0493 12.4822C50.6334 12.4567 60.2185 12.3965 69.8012 12.5163C73.1054 12.5577 76.4401 12.8873 79.6916 13.4693C81.902 13.8649 84.0565 14.7886 86.118 15.7318C88.3386 16.7478 90.4987 17.9445 92.5458 19.275C95.3093 21.071 97.6676 23.3771 99.698 25.9599C101.14 27.7939 102.568 29.6906 103.638 31.7474C104.796 33.9731 105.527 36.4185 106.45 38.7656C107.478 41.3802 107.771 44.1313 107.986 47.1078C107.984 50.3599 107.98 53.4015 107.981 56.4431C107.987 70.5347 107.994 84.6263 108 98.718C107.826 101.448 106.831 103.943 105.354 106.161C104.133 107.995 102.643 109.714 101.009 111.197C98.5625 113.419 95.5594 114.726 92.2866 115.27C90.8942 115.501 89.4558 115.525 88.038 115.528C77.6392 115.548 67.24 115.582 56.8414 115.519C52.8807 115.495 49.0514 114.678 45.2817 113.377C41.3193 112.009 37.7559 109.971 34.5787 107.361C31.442 104.784 28.7294 101.768 26.5755 98.251C24.3195 94.5675 22.7136 90.6425 21.7737 86.4789C21.2607 84.2067 21.2731 81.8169 21.0836 79.288C21.1388 78.828 21.1767 78.5602 21.1768 78.2925C21.1796 63.0976 21.1804 47.9028 21.1716 32.708C21.1714 32.3347 21.0597 31.9614 21 31.5881ZM32.9051 80.7511C33.4914 83.2145 33.8228 85.777 34.7381 88.1127C35.5952 90.2997 36.9639 92.3185 38.2996 94.2817C40.2628 97.1674 43.0865 99.1883 46.0509 100.903C47.6055 101.802 49.5591 101.987 51.2297 102.725C53.3505 103.663 55.5871 103.697 57.7806 103.715C68.1047 103.8 78.43 103.782 88.7546 103.739C93.0601 103.72 96.317 100.159 96.3612 96.0421C96.4207 90.4983 96.4012 84.9533 96.3706 79.409C96.3111 68.6016 96.2823 57.7932 96.0857 46.988C96.05 45.0233 95.4579 43.0085 94.7997 41.129C93.7317 38.079 92.1303 35.3234 89.944 32.8457C87.5273 30.1069 84.7188 28.0242 81.4416 26.4936C77.9058 24.8422 74.1363 24.3346 70.2867 24.2673C67.8513 24.2248 65.4144 24.2447 62.9783 24.2621C55.0983 24.3183 47.218 24.4512 39.3385 24.4127C36.7888 24.4002 32.9029 27.9936 32.8611 31.1307C32.8353 31.6293 32.7871 32.1278 32.7869 32.6264C32.783 47.7868 32.7824 62.9472 32.7878 78.1076C32.7881 78.9146 32.8461 79.7216 32.9051 80.7511Z" fill="#4F0699"/>
<path d="M63.3796 80.1369C65.4459 79.7875 66.8568 78.6627 67.4919 76.3811C67.5844 75.943 67.6516 75.6774 67.652 75.4116C67.6589 70.4473 67.66 65.4829 67.6523 60.5186C67.6519 60.258 67.5625 59.9975 67.5146 59.737C67.0556 57.4448 70.4526 54.1858 72.647 54.3384C74.5477 54.4707 76.1702 54.7601 77.4899 56.2316C78.3476 57.188 78.7173 58.3438 78.9813 59.7625C78.9897 68.2995 78.9948 76.6383 79 84.977C78.9195 87.6195 76.255 91.6837 72.3974 91.9082C66.6117 91.9115 61.0239 91.9187 55.4362 91.9258C52.0259 91.9239 49.3279 88.3556 50.1482 84.8418C50.7897 82.0939 52.4208 80.6491 55.2056 80.2152C56.8191 80.2745 58.2704 80.3381 59.7208 80.322C60.9409 80.3084 62.16 80.2022 63.3796 80.1369Z" fill="#4F0699"/>
<path d="M61.7607 67.9967C61.7503 70.9371 60.2643 72.2431 58.0299 73.1736C55.4793 74.2359 53.2186 73.5193 51.4569 71.6201C50.7743 70.8843 50.479 69.805 50.0124 68.6826C50.0118 59.7807 50.0059 51.0782 50 42.3757C50.5743 38.7319 53.5404 36.5465 56.5678 36.074C57.058 36.1489 57.3675 36.2066 57.6771 36.2067C63.3763 36.2097 69.0756 36.2059 74.7748 36.2035C77.0505 36.1681 79.5188 38.5715 79.923 40.6083C80.4267 43.1467 79.6768 45.1637 77.5833 46.6435C76.8342 47.173 75.8497 47.3841 74.7689 47.7377C71.5583 47.7622 68.5515 47.7895 65.5447 47.8167C63.5366 48.43 62.3124 49.7525 61.7547 51.909C61.6422 52.3371 61.5702 52.601 61.5698 52.865C61.5629 57.574 61.5607 62.2829 61.573 66.9919C61.5739 67.327 61.6953 67.6618 61.7607 67.9967Z" fill="#4F0699"/>
</svg>
